<svg width="51" height="63" viewBox="0 0 51 63" fill="none" xmlns="http://www.w3.org/2000/svg">
<mask id="path-1-inside-1_2166_23" fill="white">
<path fill-rule="evenodd" clip-rule="evenodd" d="M51 2.68421C51 1.20176 49.7982 0 48.3158 0H2.68421C1.20176 0 0 1.20176 0 2.68421V48.3158C0 49.7982 1.20176 51 2.68421 51H13.5493C14.3682 51 15.1424 51.3739 15.6516 52.0153L23.3977 61.7728C24.4724 63.1266 26.5276 63.1266 27.6023 61.7728L35.3484 52.0153C35.8576 51.3739 36.6318 51 37.4507 51H48.3158C49.7982 51 51 49.7982 51 48.3158V2.68421Z"/>
</mask>
<path fill-rule="evenodd" clip-rule="evenodd" d="M51 2.68421C51 1.20176 49.7982 0 48.3158 0H2.68421C1.20176 0 0 1.20176 0 2.68421V48.3158C0 49.7982 1.20176 51 2.68421 51H13.5493C14.3682 51 15.1424 51.3739 15.6516 52.0153L23.3977 61.7728C24.4724 63.1266 26.5276 63.1266 27.6023 61.7728L35.3484 52.0153C35.8576 51.3739 36.6318 51 37.4507 51H48.3158C49.7982 51 51 49.7982 51 48.3158V2.68421Z" fill="#FF0000"/>
<path d="M35.3484 52.0153L33.2461 50.3464L35.3484 52.0153ZM23.3977 61.7728L25.5 60.1039L23.3977 61.7728ZM27.6023 61.7728L25.5 60.1039L27.6023 61.7728ZM15.6516 52.0153L17.7539 50.3464L15.6516 52.0153ZM2.68421 2.68421H48.3158V-2.68421H2.68421V2.68421ZM2.68421 48.3158V2.68421H-2.68421V48.3158H2.68421ZM13.5493 48.3158H2.68421V53.6842H13.5493V48.3158ZM13.5493 53.6842L21.2954 63.4418L25.5 60.1039L17.7539 50.3464L13.5493 53.6842ZM29.7046 63.4418L37.4507 53.6842L33.2461 50.3464L25.5 60.1039L29.7046 63.4418ZM48.3158 48.3158H37.4507V53.6842H48.3158V48.3158ZM48.3158 2.68421V48.3158H53.6842V2.68421H48.3158ZM48.3158 53.6842C51.2807 53.6842 53.6842 51.2807 53.6842 48.3158H48.3158L48.3158 48.3158V53.6842ZM37.4507 53.6842L37.4507 53.6842V48.3158C35.8128 48.3158 34.2645 49.0635 33.2461 50.3464L37.4507 53.6842ZM21.2954 63.4418C23.4447 66.1492 27.5553 66.1492 29.7046 63.4418L25.5 60.1039L25.5 60.1039L21.2954 63.4418ZM13.5493 53.6842L13.5493 53.6842L17.7539 50.3464C16.7355 49.0635 15.1872 48.3158 13.5493 48.3158V53.6842ZM-2.68421 48.3158C-2.68421 51.2807 -0.280689 53.6842 2.68421 53.6842V48.3158L2.68421 48.3158H-2.68421ZM48.3158 2.68421L48.3158 2.68421H53.6842C53.6842 -0.280689 51.2807 -2.68421 48.3158 -2.68421V2.68421ZM2.68421 -2.68421C-0.280689 -2.68421 -2.68421 -0.280682 -2.68421 2.68421H2.68421L2.68421 2.68421V-2.68421Z" fill="#9B0000" mask="url(#path-1-inside-1_2166_23)"/>
<path d="M31.2279 32.7593C32.7293 34.1057 34.6757 34.8492 36.6924 34.8467H39.4246V37.5789H36.6924C34.7738 37.5823 32.8886 37.078 31.2279 36.1172C29.5673 37.078 27.682 37.5823 25.7635 37.5789C23.845 37.5823 21.9597 37.078 20.2991 36.1172C18.6384 37.078 16.7532 37.5823 14.8346 37.5789H12.1024V34.8467H14.8346C16.9344 34.8467 18.851 34.0571 20.2991 32.7593C21.8005 34.1057 23.7468 34.8492 25.7635 34.8467C27.8632 34.8467 29.7799 34.0571 31.2279 32.7593ZM26.5463 10.9836L26.6829 11.0929L40.7907 23.9179H36.6924V32.1145C35.6319 32.1145 34.5861 31.8676 33.6376 31.3934C32.6892 30.9192 31.8642 30.2306 31.2279 29.3823C30.5924 30.2314 29.7676 30.9205 28.8189 31.3948C27.8703 31.8691 26.8241 32.1156 25.7635 32.1145C24.7031 32.1145 23.6573 31.8676 22.7088 31.3934C21.7603 30.9192 20.9353 30.2306 20.2991 29.3823C19.6636 30.2314 18.8387 30.9205 17.8901 31.3948C16.9415 31.8691 15.8952 32.1156 14.8346 32.1145L14.8333 23.9179H10.7363L24.8441 11.0929C25.0518 10.9037 25.3128 10.7832 25.5915 10.7478C25.8702 10.7123 26.153 10.7637 26.4015 10.8948L26.5463 10.9836Z" fill="white"/>
</svg>
